<svg width="230" height="61" viewBox="0 0 230 61" fill="none" xmlns="http://www.w3.org/2000/svg">
<g clip-path="url(#clip0_48_2573)">
<path d="M4.0351 4.06665C11.2321 4.06665 18.1342 6.92267 23.2233 12.0064C28.3123 17.0902 31.1713 23.9852 31.1713 31.1747V56.9333C23.9743 56.9333 17.0721 54.0773 11.9831 48.9936C6.89408 43.9098 4.0351 37.0148 4.0351 29.8253V4.06665Z" fill="#780096"/>
<path d="M33.5409 35.0157V21.3373C33.5409 19.0685 33.9884 16.822 34.8578 14.726C35.7273 12.63 37.0015 10.7257 38.6079 9.12186C40.2143 7.51801 42.1213 6.24605 44.2199 5.37866C46.3185 4.51127 48.5676 4.06544 50.8388 4.06665V17.7496C50.8388 20.0182 50.3912 22.2645 49.5218 24.3603C48.6523 26.456 47.3779 28.36 45.7715 29.9635C44.1651 31.5669 42.2581 32.8385 40.1595 33.7054C38.0609 34.5722 35.8119 35.0175 33.5409 35.0157Z" fill="#780096"/>
<path d="M33.5409 37.6868H53.3652C58.4713 37.6868 63.3683 39.7131 66.9788 43.3199C70.5894 46.9267 72.6178 51.8186 72.6178 56.9194H52.7935C47.6874 56.9194 42.7905 54.8931 39.1799 51.2863C35.5693 47.6795 33.5409 42.7876 33.5409 37.6868Z" fill="#780096"/>
</g>
<path d="M131.645 56.9333H120.548L108.475 37.3625L104.345 40.349V56.9333H94.5724V10.4844H104.345V31.7391C104.996 30.8283 105.637 29.9175 106.268 29.0068C106.898 28.096 107.539 27.1852 108.191 26.2745L120.674 10.4844H131.519L115.441 31.0401L131.645 56.9333Z" fill="#780096"/>
<path d="M168.717 39.1099C168.717 42.0752 168.318 44.7016 167.519 46.9891C166.742 49.2766 165.596 51.2146 164.083 52.8031C162.591 54.3705 160.784 55.5566 158.661 56.3615C156.559 57.1663 154.184 57.5688 151.536 57.5688C149.057 57.5688 146.776 57.1663 144.696 56.3615C142.636 55.5566 140.839 54.3705 139.305 52.8031C137.792 51.2146 136.615 49.2766 135.774 46.9891C134.955 44.7016 134.545 42.0752 134.545 39.1099C134.545 35.1703 135.238 31.8344 136.626 29.1021C138.013 26.3698 139.988 24.2941 142.552 22.875C145.116 21.4559 148.174 20.7464 151.726 20.7464C155.025 20.7464 157.946 21.4559 160.489 22.875C163.053 24.2941 165.06 26.3698 166.51 29.1021C167.982 31.8344 168.717 35.1703 168.717 39.1099ZM144.349 39.1099C144.349 41.4398 144.601 43.399 145.106 44.9875C145.61 46.576 146.398 47.7727 147.47 48.5776C148.542 49.3825 149.939 49.7849 151.663 49.7849C153.365 49.7849 154.741 49.3825 155.792 48.5776C156.864 47.7727 157.642 46.576 158.125 44.9875C158.629 43.399 158.882 41.4398 158.882 39.1099C158.882 36.7589 158.629 34.8102 158.125 33.2641C157.642 31.6967 156.864 30.5212 155.792 29.7375C154.72 28.9538 153.323 28.562 151.6 28.562C149.057 28.562 147.207 29.441 146.051 31.199C144.916 32.9569 144.349 35.5939 144.349 39.1099Z" fill="#780096"/>
<path d="M196.143 28.6891H187.821V56.9333H178.206V28.6891H172.91V24.0188L178.206 21.4135V18.8083C178.206 15.7795 178.71 13.4285 179.719 11.7552C180.749 10.0608 182.188 8.87465 184.038 8.19688C185.908 7.49792 188.115 7.14844 190.658 7.14844C192.528 7.14844 194.231 7.30729 195.765 7.625C197.299 7.92153 198.549 8.26042 199.516 8.64167L197.057 15.7583C196.322 15.5253 195.523 15.3135 194.661 15.1229C193.8 14.9323 192.812 14.837 191.698 14.837C190.353 14.837 189.365 15.25 188.735 16.076C188.125 16.8809 187.821 17.9188 187.821 19.1896V21.4135H196.143V28.6891ZM221.142 28.6891H212.819V56.9333H203.204V28.6891H197.908V24.0188L203.204 21.4135V18.8083C203.204 15.7795 203.709 13.4285 204.718 11.7552C205.747 10.0608 207.187 8.87465 209.036 8.19688C210.907 7.49792 213.114 7.14844 215.657 7.14844C217.527 7.14844 219.229 7.30729 220.763 7.625C222.298 7.92153 223.548 8.26042 224.515 8.64167L222.056 15.7583C221.32 15.5253 220.522 15.3135 219.66 15.1229C218.798 14.9323 217.811 14.837 216.697 14.837C215.352 14.837 214.364 15.25 213.734 16.076C213.124 16.8809 212.819 17.9188 212.819 19.1896V21.4135H221.142V28.6891Z" fill="#780096"/>
<defs>
<clipPath id="clip0_48_2573">
<rect width="68.5965" height="52.8667" fill="white" transform="translate(4.0351 4.06665)"/>
</clipPath>
</defs>
</svg>
