<svg xmlns="http://www.w3.org/2000/svg" width="54" height="22" viewBox="0 0 54 22" fill="none">
<path d="M15.8026 21.3333H11.2675L6.33305 13.3125L4.64528 14.5365V21.3333H0.651306V2.29688H4.64528V11.0078C4.91154 10.6345 5.17351 10.2613 5.43119 9.88802C5.68886 9.51476 5.95083 9.14149 6.2171 8.76823L11.3191 2.29688H15.7511L9.18036 10.7214L15.8026 21.3333Z" fill="#780096"/>
<path d="M30.9539 14.0286C30.9539 15.2439 30.7907 16.3203 30.4644 17.2578C30.1466 18.1953 29.6784 18.9896 29.06 19.6406C28.4502 20.283 27.7115 20.7691 26.844 21.099C25.9851 21.4288 25.0145 21.5938 23.9323 21.5938C22.9188 21.5938 21.9868 21.4288 21.1365 21.099C20.2948 20.7691 19.5604 20.283 18.9334 19.6406C18.315 18.9896 17.834 18.1953 17.4904 17.2578C17.1554 16.3203 16.9879 15.2439 16.9879 14.0286C16.9879 12.4141 17.2714 11.0469 17.8383 9.92708C18.4051 8.80729 19.2125 7.9566 20.2604 7.375C21.3083 6.7934 22.558 6.5026 24.0096 6.5026C25.3581 6.5026 26.552 6.7934 27.5913 7.375C28.6392 7.9566 29.4594 8.80729 30.0521 9.92708C30.6533 11.0469 30.9539 12.4141 30.9539 14.0286ZM20.9948 14.0286C20.9948 14.9835 21.0979 15.7865 21.304 16.4375C21.5101 17.0885 21.8322 17.579 22.2703 17.9089C22.7083 18.2387 23.2795 18.4036 23.9838 18.4036C24.6795 18.4036 25.2421 18.2387 25.6716 17.9089C26.1096 17.579 26.4274 17.0885 26.625 16.4375C26.8311 15.7865 26.9342 14.9835 26.9342 14.0286C26.9342 13.0651 26.8311 12.2665 26.625 11.6328C26.4274 10.9905 26.1096 10.5087 25.6716 10.1875C25.2335 9.86632 24.6624 9.70573 23.958 9.70573C22.9188 9.70573 22.1629 10.066 21.6905 10.7865C21.2267 11.5069 20.9948 12.5877 20.9948 14.0286Z" fill="#780096"/>
<path d="M42.1628 9.75781H38.7615V21.3333H34.832V9.75781H32.6675V7.84375L34.832 6.77604V5.70833C34.832 4.46701 35.0381 3.50347 35.4504 2.81771C35.8712 2.12326 36.4596 1.63715 37.2155 1.35938C37.9799 1.07292 38.8818 0.929688 39.921 0.929688C40.6855 0.929688 41.3812 0.994792 42.0082 1.125C42.6352 1.24653 43.1463 1.38542 43.5414 1.54167L42.5364 4.45833C42.2358 4.36285 41.9094 4.27604 41.5573 4.19792C41.2051 4.11979 40.8014 4.08073 40.3462 4.08073C39.7965 4.08073 39.3928 4.25 39.1351 4.58854C38.886 4.9184 38.7615 5.34375 38.7615 5.86458V6.77604H42.1628V9.75781ZM52.3797 9.75781H48.9783V21.3333H45.0488V9.75781H42.8843V7.84375L45.0488 6.77604V5.70833C45.0488 4.46701 45.2549 3.50347 45.6672 2.81771C46.0881 2.12326 46.6764 1.63715 47.4323 1.35938C48.1967 1.07292 49.0986 0.929688 50.1379 0.929688C50.9023 0.929688 51.598 0.994792 52.225 1.125C52.8521 1.24653 53.3631 1.38542 53.7582 1.54167L52.7533 4.45833C52.4527 4.36285 52.1263 4.27604 51.7741 4.19792C51.422 4.11979 51.0183 4.08073 50.563 4.08073C50.0133 4.08073 49.6096 4.25 49.352 4.58854C49.1029 4.9184 48.9783 5.34375 48.9783 5.86458V6.77604H52.3797V9.75781Z" fill="#780096"/>
</svg>